<?xml version="1.0" standalone="no"?>
<!DOCTYPE svg PUBLIC "-//W3C//DTD SVG 20010904//EN"
 "http://www.w3.org/TR/2001/REC-SVG-20010904/DTD/svg10.dtd">
<svg version="1.0" xmlns="http://www.w3.org/2000/svg"
 width="512.000000pt" height="512.000000pt" viewBox="0 0 512.000000 512.000000"
 preserveAspectRatio="xMidYMid meet">

<g transform="translate(0.000000,512.000000) scale(0.100000,-0.100000)"
fill="#000000" stroke="none">
<path d="M903 5100 c-21 -13 -35 -31 -42 -57 -15 -53 -15 -4913 0 -4966 7 -26
21 -44 42 -57 31 -20 65 -20 1657 -20 1598 0 1626 0 1657 20 18 11 36 32 40
47 10 37 10 4949 0 4986 -4 15 -22 36 -40 47 -31 20 -59 20 -1657 20 -1592 0
-1626 0 -1657 -20z m940 -429 c129 -45 229 -148 272 -280 26 -80 18 -217 -18
-295 -127 -277 -479 -343 -691 -130 -228 228 -131 612 179 710 63 20 193 17
258 -5z m673 1 c55 -44 59 -109 10 -158 -70 -70 -175 -26 -176 74 0 61 41 102
102 102 26 0 52 -7 64 -18z m433 -8 c75 -63 30 -184 -69 -184 -43 0 -75 21
-96 62 -35 67 18 148 96 148 27 0 48 -8 69 -26z m432 -3 c23 -24 29 -38 29
-73 -1 -100 -106 -144 -176 -74 -70 70 -26 175 74 176 35 0 49 -6 73 -29z
m669 -501 l0 -110 -105 0 -105 0 0 -210 0 -210 105 0 105 0 0 -110 0 -110
-105 0 -105 0 0 -1280 0 -1280 105 0 105 0 0 -105 0 -105 -105 0 -105 0 0
-215 0 -215 -105 0 -105 0 0 1920 0 1920 -278 0 c-418 0 -425 -3 -712 -284
-203 -199 -269 -251 -380 -297 -126 -53 -196 -59 -716 -59 l-474 0 0 110 0
110 488 0 c535 0 545 1 664 61 48 24 106 74 258 223 203 200 269 251 381 298
123 52 180 56 707 57 l482 1 0 -110z m-2483 -1952 c143 -143 159 -169 130
-224 -9 -16 -71 -84 -140 -151 -121 -120 -125 -123 -168 -123 -47 0 -78 19
-98 57 -15 29 -15 496 0 524 18 34 70 61 109 55 28 -4 59 -30 167 -138z m1599
-1602 c49 -49 45 -114 -10 -158 -19 -16 -66 -18 -596 -18 -530 0 -577 2 -596
18 -55 44 -59 109 -10 158 l34 34 572 0 572 0 34 -34z"/>
</g>
</svg>
