<?xml version="1.0" encoding="UTF-8" standalone="no"?>
<svg
   version="1.0"
   width="512.000000pt"
   height="512.000000pt"
   viewBox="0 0 512.000000 512.000000"
   preserveAspectRatio="xMidYMid meet"
   id="svg140"
   sodipodi:docname="pokeball_colored.svg"
   inkscape:version="1.2.1 (9c6d41e, 2022-07-14)"
   xmlns:inkscape="http://www.inkscape.org/namespaces/inkscape"
   xmlns:sodipodi="http://sodipodi.sourceforge.net/DTD/sodipodi-0.dtd"
   xmlns="http://www.w3.org/2000/svg"
   xmlns:svg="http://www.w3.org/2000/svg">
  <defs
     id="defs144" />
  <sodipodi:namedview
     id="namedview142"
     pagecolor="#ffffff"
     bordercolor="#000000"
     borderopacity="0.25"
     inkscape:showpageshadow="2"
     inkscape:pageopacity="0.0"
     inkscape:pagecheckerboard="0"
     inkscape:deskcolor="#d1d1d1"
     inkscape:document-units="pt"
     showgrid="false"
     inkscape:zoom="0.34570313"
     inkscape:cx="293.60452"
     inkscape:cy="341.33333"
     inkscape:window-width="1440"
     inkscape:window-height="876"
     inkscape:window-x="0"
     inkscape:window-y="24"
     inkscape:window-maximized="0"
     inkscape:current-layer="g138" />
  <g
     transform="translate(0.000000,512.000000) scale(0.100000,-0.100000)"
     fill="#000000"
     stroke="none"
     id="g138">
    <path
       d="M2321 4789 c-423 -47 -835 -219 -1166 -486 -438 -353 -727 -862 -809 -1424 -9 -59 -16 -118 -16 -133 l0 -26 723 0 723 0 13 53 c19 76 82 202 141 279 63 83 176 175 272 222 260 128 563 110 801 -48 154 -102 285 -283 328 -453 l13 -53 723 0 c686 0 723 1 723 18 0 10 -5 56 -10 102 -60 481 -274 926 -615 1279 -338 349 -758 570 -1245 653 -134 23 -465 32 -599 17z"
       id="path132"
       style="fill:#d40000" />
    <path
       d="M2441 3024 c-253 -68 -410 -331 -346 -579 67 -256 329 -415 580 -350 256 67 415 329 350 578 -67 259 -333 419 -584 351z"
       id="path134" />
    <path
       d="M330 2382 c0 -10 5 -55 10 -101 61 -482 273 -925 610 -1275 189 -195 380 -335 625 -456 328 -163 689 -240 1060 -227 333 11 610 80 910 227 240 117 432 256 620 451 334 345 540 765 609 1240 9 59 16 118 16 133 l0 26 -723 0 -723 0 -13 -52 c-31 -123 -112 -260 -212 -358 -99 -98 -215 -164 -359 -206 -91 -26 -308 -26 -400 0 -167 47 -334 158 -430 284 -59 77 -122 203 -141 280 l-13 52 -723 0 c-686 0 -723 -1 -723 -18z"
       id="path136"
       style="fill:#ececec" />
  </g>
</svg>
