<?xml version="1.0" standalone="no"?>
<!DOCTYPE svg PUBLIC "-//W3C//DTD SVG 20010904//EN"
 "http://www.w3.org/TR/2001/REC-SVG-20010904/DTD/svg10.dtd">
<svg version="1.0" xmlns="http://www.w3.org/2000/svg"
 width="512.000000pt" height="512.000000pt" viewBox="0 0 512.000000 512.000000"
 preserveAspectRatio="xMidYMid meet">

<g transform="translate(0.000000,512.000000) scale(0.100000,-0.100000)"
fill="#000000" stroke="none">
<path d="M1444 5106 c-17 -8 -43 -29 -56 -47 -14 -19 -123 -214 -243 -434
-119 -220 -225 -407 -234 -416 -9 -9 -203 -119 -431 -243 -238 -130 -426 -239
-442 -256 -53 -58 -46 -157 15 -205 18 -14 219 -128 447 -253 l415 -227 227
-415 c125 -228 239 -429 253 -447 48 -61 147 -68 205 -15 18 16 128 206 263
452 l232 425 415 227 c228 125 429 239 447 253 64 50 68 152 10 210 -18 17
-216 131 -442 254 -225 123 -417 230 -426 239 -9 10 -115 197 -234 417 -120
220 -229 415 -243 434 -42 56 -113 75 -178 47z"/>
<path d="M3976 3207 c-42 -23 -42 -23 -270 -438 l-96 -177 -292 -158 c-335
-183 -344 -191 -336 -289 4 -43 11 -62 33 -85 15 -16 146 -93 289 -171 144
-78 273 -150 287 -160 17 -12 82 -121 178 -298 84 -153 166 -291 182 -307 23
-22 40 -29 86 -32 98 -7 103 0 287 336 l161 293 280 153 c154 84 294 167 312
184 58 57 54 154 -10 209 -19 15 -157 95 -308 177 l-274 149 -150 275 c-83
151 -161 289 -175 305 -47 58 -119 71 -184 34z"/>
<path d="M2231 1499 c-18 -4 -45 -16 -60 -27 -14 -10 -72 -102 -130 -208
l-103 -189 -185 -100 c-195 -106 -229 -134 -240 -199 -14 -91 18 -123 242
-247 l184 -101 96 -176 c53 -99 111 -191 130 -209 35 -33 88 -50 127 -39 62
16 83 42 188 234 l105 191 189 103 c223 121 242 140 234 234 -7 76 -28 95
-243 213 l-179 97 -97 178 c-53 98 -109 190 -124 206 -32 33 -86 49 -134 39z"/>
</g>
</svg>
